<svg xmlns="http://www.w3.org/2000/svg" width="48" height="48" viewBox="0 0 48 48">
    <g data-name="마스크 그룹 1872">
        <path data-name="패스 31407" d="M31.659 39.552a15.56 15.56 0 0 1-3.91-.584 26.248 26.248 0 0 1-12.471-7.276A23.815 23.815 0 0 1 9.024 20.22c-1.32-5.015-.007-6.651.269-6.927l3.957-3.957a2.25 2.25 0 0 1 3.1-.387 2.359 2.359 0 0 1 .4.386l4.914 4.915a2.253 2.253 0 0 1 .387 3.1 2.322 2.322 0 0 1-.386.4l-3.754 3.753c-.093.64-.142 2.851 2.8 5.79s5.127 2.888 5.793 2.793l3.75-3.75a2.255 2.255 0 0 1 3.1-.387 2.359 2.359 0 0 1 .4.386l4.914 4.915a2.25 2.25 0 0 1 .387 3.1 2.322 2.322 0 0 1-.386.4l-3.958 3.957c-.19.187-.996.845-3.052.845zM10.708 14.706c.012 0-.754 1.191.259 5.039a21.857 21.857 0 0 0 5.746 10.554 24.26 24.26 0 0 0 11.534 6.732h.008c3.919 1.032 5.08.219 5.093.211l3.945-3.951a1.025 1.025 0 0 1 .1-.092c.134-.161.113-.318 0-.4a1.248 1.248 0 0 1-.107-.094l-5-5a1.025 1.025 0 0 1-.092-.1c-.121-.1-.191-.107-.237-.1a.244.244 0 0 0-.163.1 1.248 1.248 0 0 1-.094.107l-4 4a1 1 0 0 1-.391.241c-.147.052-3.637 1.145-8.023-3.241s-3.29-7.877-3.241-8.023a1 1 0 0 1 .241-.391l4-4a1.025 1.025 0 0 1 .1-.092c.1-.12.106-.19.1-.237a.244.244 0 0 0-.1-.163 1.248 1.248 0 0 1-.107-.094l-5-5a1.025 1.025 0 0 1-.092-.1c-.121-.105-.191-.107-.237-.1a.244.244 0 0 0-.163.1 1.248 1.248 0 0 1-.094.107l-4 4z"/>
    </g>
</svg>
